<?xml version="1.0" encoding="UTF-8" standalone="no"?>
<!DOCTYPE svg PUBLIC "-//W3C//DTD SVG 1.1//EN"
 "http://www.w3.org/Graphics/SVG/1.1/DTD/svg11.dtd">
<!-- Generated by graphviz version 16.0.0 (20260814.1018)
 -->
<!-- Title: Ch1 Pages: 1 -->
<svg width="424pt" height="204pt"
 viewBox="0.00 0.00 424.00 204.00" xmlns="http://www.w3.org/2000/svg" xmlns:xlink="http://www.w3.org/1999/xlink">
<g id="graph0" class="graph" transform="scale(1 1) rotate(0) translate(4 200)">
<title>Ch1</title>
<polygon fill="white" stroke="none" points="-4,4 -4,-200 419.62,-200 419.62,4 -4,4"/>
<!-- ToasterDemo::Toaster -->
<g id="node1" class="node">
<title>ToasterDemo::Toaster</title>
<polygon fill="none" stroke="black" points="238.38,-196 178.12,-196 178.12,-160 238.38,-160 238.38,-196"/>
<text xml:space="preserve" text-anchor="middle" x="208.25" y="-172.2" font-family="Helvetica,sans-Serif" font-size="14.00">Toaster</text>
</g>
<!-- ToasterDemo::Toaster::heating -->
<g id="node2" class="node">
<title>ToasterDemo::Toaster::heating</title>
<polygon fill="none" stroke="black" points="200.5,-109 0,-109 0,-73 200.5,-73 200.5,-109"/>
<text xml:space="preserve" text-anchor="middle" x="100.25" y="-85.2" font-family="Helvetica,sans-Serif" font-size="14.00">ToasterDemo::Toaster::heating</text>
</g>
<!-- ToasterDemo::Toaster&#45;&gt;ToasterDemo::Toaster::heating -->
<g id="edge1" class="edge">
<title>ToasterDemo::Toaster&#45;&gt;ToasterDemo::Toaster::heating</title>
<path fill="none" stroke="black" d="M186.13,-159.59C170.7,-147.45 149.85,-131.04 132.56,-117.43"/>
<polygon fill="black" stroke="black" points="132.47,-117.36 125.29,-116.79 123.04,-109.94 130.23,-110.51 132.47,-117.36"/>
<text xml:space="preserve" text-anchor="middle" x="182.84" y="-128.7" font-family="Helvetica,sans-Serif" font-size="14.00">heating</text>
</g>
<!-- ToasterDemo::Toaster::control -->
<g id="node4" class="node">
<title>ToasterDemo::Toaster::control</title>
<polygon fill="none" stroke="black" points="415.62,-109 218.88,-109 218.88,-73 415.62,-73 415.62,-109"/>
<text xml:space="preserve" text-anchor="middle" x="317.25" y="-85.2" font-family="Helvetica,sans-Serif" font-size="14.00">ToasterDemo::Toaster::control</text>
</g>
<!-- ToasterDemo::Toaster&#45;&gt;ToasterDemo::Toaster::control -->
<g id="edge3" class="edge">
<title>ToasterDemo::Toaster&#45;&gt;ToasterDemo::Toaster::control</title>
<path fill="none" stroke="black" d="M230.57,-159.59C246.29,-147.33 267.59,-130.73 285.13,-117.05"/>
<polygon fill="black" stroke="black" points="284.79,-117.32 287.06,-110.47 294.25,-109.94 291.98,-116.78 284.79,-117.32"/>
<text xml:space="preserve" text-anchor="middle" x="289.53" y="-128.7" font-family="Helvetica,sans-Serif" font-size="14.00">control</text>
</g>
<!-- ToasterDemo::HeatingSystem -->
<g id="node3" class="node">
<title>ToasterDemo::HeatingSystem</title>
<polygon fill="none" stroke="black" points="154.38,-36 46.12,-36 46.12,0 154.38,0 154.38,-36"/>
<text xml:space="preserve" text-anchor="middle" x="100.25" y="-12.2" font-family="Helvetica,sans-Serif" font-size="14.00">HeatingSystem</text>
</g>
<!-- ToasterDemo::Toaster::heating&#45;&gt;ToasterDemo::HeatingSystem -->
<g id="edge2" class="edge">
<title>ToasterDemo::Toaster::heating&#45;&gt;ToasterDemo::HeatingSystem</title>
<path fill="none" stroke="black" stroke-dasharray="5,2" d="M100.25,-72.81C100.25,-65.14 100.25,-55.89 100.25,-47.24"/>
<polygon fill="black" stroke="black" points="100.25,-37.25 104.75,-47.25 100.25,-41.03 100.25,-47.25 100.25,-47.25 100.25,-47.25 100.25,-41.03 95.75,-47.25 100.25,-37.25"/>
</g>
<!-- ToasterDemo::ControlSystem -->
<g id="node5" class="node">
<title>ToasterDemo::ControlSystem</title>
<polygon fill="none" stroke="black" points="369.88,-36 264.62,-36 264.62,0 369.88,0 369.88,-36"/>
<text xml:space="preserve" text-anchor="middle" x="317.25" y="-12.2" font-family="Helvetica,sans-Serif" font-size="14.00">ControlSystem</text>
</g>
<!-- ToasterDemo::Toaster::control&#45;&gt;ToasterDemo::ControlSystem -->
<g id="edge4" class="edge">
<title>ToasterDemo::Toaster::control&#45;&gt;ToasterDemo::ControlSystem</title>
<path fill="none" stroke="black" stroke-dasharray="5,2" d="M317.25,-72.81C317.25,-65.14 317.25,-55.89 317.25,-47.24"/>
<polygon fill="black" stroke="black" points="317.25,-37.25 321.75,-47.25 317.25,-41.03 317.25,-47.25 317.25,-47.25 317.25,-47.25 317.25,-41.03 312.75,-47.25 317.25,-37.25"/>
</g>
</g>
</svg>
