<?xml version="1.0" encoding="UTF-8" standalone="no"?>
<!DOCTYPE svg PUBLIC "-//W3C//DTD SVG 1.1//EN"
 "http://www.w3.org/Graphics/SVG/1.1/DTD/svg11.dtd">
<!-- Generated by graphviz version 16.0.0 (20260814.1018)
 -->
<!-- Title: Ch3 Pages: 1 -->
<svg width="424pt" height="366pt"
 viewBox="0.00 0.00 424.00 366.00" xmlns="http://www.w3.org/2000/svg" xmlns:xlink="http://www.w3.org/1999/xlink">
<g id="graph0" class="graph" transform="scale(1 1) rotate(0) translate(4 362)">
<title>Ch3</title>
<polygon fill="white" stroke="none" points="-4,4 -4,-362 419.62,-362 419.62,4 -4,4"/>
<!-- ToasterDemo::ToastingSystem -->
<g id="node1" class="node">
<title>ToasterDemo::ToastingSystem</title>
<polygon fill="none" stroke="black" stroke-dasharray="5,2" points="153.25,-358 41.25,-358 41.25,-320 153.25,-320 153.25,-358"/>
<text xml:space="preserve" text-anchor="middle" x="97.25" y="-340.7" font-family="Helvetica,sans-Serif" font-size="14.00">«abstract»</text>
<text xml:space="preserve" text-anchor="middle" x="97.25" y="-325.7" font-family="Helvetica,sans-Serif" font-size="14.00">ToastingSystem</text>
</g>
<!-- ToasterDemo::HeatingSystem -->
<g id="node2" class="node">
<title>ToasterDemo::HeatingSystem</title>
<polygon fill="none" stroke="black" points="154.38,-36 46.12,-36 46.12,0 154.38,0 154.38,-36"/>
<text xml:space="preserve" text-anchor="middle" x="100.25" y="-12.2" font-family="Helvetica,sans-Serif" font-size="14.00">HeatingSystem</text>
</g>
<!-- ToasterDemo::ControlSystem -->
<g id="node3" class="node">
<title>ToasterDemo::ControlSystem</title>
<polygon fill="none" stroke="black" points="369.88,-36 264.62,-36 264.62,0 369.88,0 369.88,-36"/>
<text xml:space="preserve" text-anchor="middle" x="317.25" y="-12.2" font-family="Helvetica,sans-Serif" font-size="14.00">ControlSystem</text>
</g>
<!-- ToasterDemo::Toaster -->
<g id="node4" class="node">
<title>ToasterDemo::Toaster</title>
<polygon fill="none" stroke="black" points="238.38,-196 178.12,-196 178.12,-160 238.38,-160 238.38,-196"/>
<text xml:space="preserve" text-anchor="middle" x="208.25" y="-172.2" font-family="Helvetica,sans-Serif" font-size="14.00">Toaster</text>
</g>
<!-- ToasterDemo::Toaster::heating -->
<g id="node5" class="node">
<title>ToasterDemo::Toaster::heating</title>
<polygon fill="none" stroke="black" points="200.5,-109 0,-109 0,-73 200.5,-73 200.5,-109"/>
<text xml:space="preserve" text-anchor="middle" x="100.25" y="-85.2" font-family="Helvetica,sans-Serif" font-size="14.00">ToasterDemo::Toaster::heating</text>
</g>
<!-- ToasterDemo::Toaster&#45;&gt;ToasterDemo::Toaster::heating -->
<g id="edge1" class="edge">
<title>ToasterDemo::Toaster&#45;&gt;ToasterDemo::Toaster::heating</title>
<path fill="none" stroke="black" d="M186.13,-159.59C170.7,-147.45 149.85,-131.04 132.56,-117.43"/>
<polygon fill="black" stroke="black" points="132.47,-117.36 125.29,-116.79 123.04,-109.94 130.23,-110.51 132.47,-117.36"/>
<text xml:space="preserve" text-anchor="middle" x="182.84" y="-128.7" font-family="Helvetica,sans-Serif" font-size="14.00">heating</text>
</g>
<!-- ToasterDemo::Toaster::control -->
<g id="node6" class="node">
<title>ToasterDemo::Toaster::control</title>
<polygon fill="none" stroke="black" points="415.62,-109 218.88,-109 218.88,-73 415.62,-73 415.62,-109"/>
<text xml:space="preserve" text-anchor="middle" x="317.25" y="-85.2" font-family="Helvetica,sans-Serif" font-size="14.00">ToasterDemo::Toaster::control</text>
</g>
<!-- ToasterDemo::Toaster&#45;&gt;ToasterDemo::Toaster::control -->
<g id="edge3" class="edge">
<title>ToasterDemo::Toaster&#45;&gt;ToasterDemo::Toaster::control</title>
<path fill="none" stroke="black" d="M230.57,-159.59C246.29,-147.33 267.59,-130.73 285.13,-117.05"/>
<polygon fill="black" stroke="black" points="284.79,-117.32 287.06,-110.47 294.25,-109.94 291.98,-116.78 284.79,-117.32"/>
<text xml:space="preserve" text-anchor="middle" x="289.53" y="-128.7" font-family="Helvetica,sans-Serif" font-size="14.00">control</text>
</g>
<!-- ToasterDemo::Toaster::heating&#45;&gt;ToasterDemo::HeatingSystem -->
<g id="edge2" class="edge">
<title>ToasterDemo::Toaster::heating&#45;&gt;ToasterDemo::HeatingSystem</title>
<path fill="none" stroke="black" stroke-dasharray="5,2" d="M100.25,-72.81C100.25,-65.14 100.25,-55.89 100.25,-47.24"/>
<polygon fill="black" stroke="black" points="100.25,-37.25 104.75,-47.25 100.25,-41.03 100.25,-47.25 100.25,-47.25 100.25,-47.25 100.25,-41.03 95.75,-47.25 100.25,-37.25"/>
</g>
<!-- ToasterDemo::Toaster::control&#45;&gt;ToasterDemo::ControlSystem -->
<g id="edge4" class="edge">
<title>ToasterDemo::Toaster::control&#45;&gt;ToasterDemo::ControlSystem</title>
<path fill="none" stroke="black" stroke-dasharray="5,2" d="M317.25,-72.81C317.25,-65.14 317.25,-55.89 317.25,-47.24"/>
<polygon fill="black" stroke="black" points="317.25,-37.25 321.75,-47.25 317.25,-41.03 317.25,-47.25 317.25,-47.25 317.25,-47.25 317.25,-41.03 312.75,-47.25 317.25,-37.25"/>
</g>
<!-- ToasterDemo -->
<g id="node7" class="node">
<title>ToasterDemo</title>
<polygon fill="none" stroke="black" points="268.75,-357 171.75,-357 171.75,-321 268.75,-321 268.75,-357"/>
<text xml:space="preserve" text-anchor="middle" x="220.25" y="-333.2" font-family="Helvetica,sans-Serif" font-size="14.00">ToasterDemo</text>
</g>
<!-- ToasterDemo::nominal -->
<g id="node8" class="node">
<title>ToasterDemo::nominal</title>
<polygon fill="none" stroke="black" points="205.5,-269 53,-269 53,-233 205.5,-233 205.5,-269"/>
<text xml:space="preserve" text-anchor="middle" x="129.25" y="-245.2" font-family="Helvetica,sans-Serif" font-size="14.00">ToasterDemo::nominal</text>
</g>
<!-- ToasterDemo&#45;&gt;ToasterDemo::nominal -->
<g id="edge5" class="edge">
<title>ToasterDemo&#45;&gt;ToasterDemo::nominal</title>
<path fill="none" stroke="black" d="M201.83,-320.6C188.88,-308.36 171.33,-291.77 156.73,-277.97"/>
<polygon fill="black" stroke="black" points="157.01,-278.24 149.91,-277.02 148.29,-270 155.4,-271.21 157.01,-278.24"/>
<text xml:space="preserve" text-anchor="middle" x="204.2" y="-288.7" font-family="Helvetica,sans-Serif" font-size="14.00">nominal</text>
</g>
<!-- ToasterDemo::slow -->
<g id="node9" class="node">
<title>ToasterDemo::slow</title>
<polygon fill="none" stroke="black" points="355,-269 223.5,-269 223.5,-233 355,-233 355,-269"/>
<text xml:space="preserve" text-anchor="middle" x="289.25" y="-245.2" font-family="Helvetica,sans-Serif" font-size="14.00">ToasterDemo::slow</text>
</g>
<!-- ToasterDemo&#45;&gt;ToasterDemo::slow -->
<g id="edge7" class="edge">
<title>ToasterDemo&#45;&gt;ToasterDemo::slow</title>
<path fill="none" stroke="black" d="M234.21,-320.6C243.66,-308.82 256.33,-293.02 267.14,-279.56"/>
<polygon fill="black" stroke="black" points="267.23,-279.44 267.87,-272.26 274.74,-270.08 274.11,-277.26 267.23,-279.44"/>
<text xml:space="preserve" text-anchor="middle" x="274.43" y="-288.7" font-family="Helvetica,sans-Serif" font-size="14.00">slow</text>
</g>
<!-- ToasterDemo::nominal&#45;&gt;ToasterDemo::Toaster -->
<g id="edge6" class="edge">
<title>ToasterDemo::nominal&#45;&gt;ToasterDemo::Toaster</title>
<path fill="none" stroke="black" stroke-dasharray="5,2" d="M148.37,-232.81C158.1,-224.07 170.1,-213.28 180.8,-203.67"/>
<polygon fill="black" stroke="black" points="188.12,-197.09 183.69,-207.12 185.31,-199.62 180.68,-203.77 180.68,-203.77 180.68,-203.77 185.31,-199.62 177.68,-200.43 188.12,-197.09"/>
</g>
<!-- ToasterDemo::slow&#45;&gt;ToasterDemo::Toaster -->
<g id="edge8" class="edge">
<title>ToasterDemo::slow&#45;&gt;ToasterDemo::Toaster</title>
<path fill="none" stroke="black" stroke-dasharray="5,2" d="M269.64,-232.81C259.57,-223.98 247.12,-213.07 236.07,-203.39"/>
<polygon fill="black" stroke="black" points="228.87,-197.08 239.36,-200.29 231.72,-199.57 236.39,-203.67 236.39,-203.67 236.39,-203.67 231.72,-199.57 233.43,-207.05 228.87,-197.08"/>
</g>
</g>
</svg>
