<?xml version="1.0" encoding="UTF-8" standalone="no"?>
<!DOCTYPE svg PUBLIC "-//W3C//DTD SVG 1.1//EN"
 "http://www.w3.org/Graphics/SVG/1.1/DTD/svg11.dtd">
<!-- Generated by graphviz version 16.0.0 (20260814.1018)
 -->
<!-- Title: Toaster Pages: 1 -->
<svg width="447pt" height="123pt"
 viewBox="0.00 0.00 447.00 123.00" xmlns="http://www.w3.org/2000/svg" xmlns:xlink="http://www.w3.org/1999/xlink">
<g id="graph0" class="graph" transform="scale(1 1) rotate(0) translate(4 119)">
<title>Toaster</title>
<polygon fill="white" stroke="none" points="-4,4 -4,-119 443.25,-119 443.25,4 -4,4"/>
<text xml:space="preserve" text-anchor="middle" x="219.62" y="-97.7" font-family="Helvetica,sans-Serif" font-size="14.00">Toaster</text>
<!-- heating -->
<g id="node1" class="node">
<title>heating</title>
<polygon fill="white" stroke="black" points="439.25,-64 327.25,-64 327.25,-26 439.25,-26 439.25,-64"/>
<text xml:space="preserve" text-anchor="middle" x="383.25" y="-46.7" font-family="Helvetica,sans-Serif" font-size="14.00">heating</text>
<text xml:space="preserve" text-anchor="middle" x="383.25" y="-31.7" font-family="Helvetica,sans-Serif" font-size="14.00">:HeatingSystem</text>
</g>
<!-- control -->
<g id="node2" class="node">
<title>control</title>
<polygon fill="white" stroke="black" points="127.38,-92 18.38,-92 18.38,-54 127.38,-54 127.38,-92"/>
<text xml:space="preserve" text-anchor="middle" x="72.88" y="-74.7" font-family="Helvetica,sans-Serif" font-size="14.00">control</text>
<text xml:space="preserve" text-anchor="middle" x="72.88" y="-59.7" font-family="Helvetica,sans-Serif" font-size="14.00">:ControlSystem</text>
</g>
<!-- control&#45;&gt;heating -->
<g id="edge1" class="edge">
<title>control&#45;&gt;heating</title>
<path fill="none" stroke="black" d="M127.59,-68.12C179.92,-63.37 259.61,-56.14 315.89,-51.03"/>
<polygon fill="black" stroke="black" points="325.6,-50.14 316.05,-55.53 321.83,-50.49 315.64,-51.05 315.64,-51.05 315.64,-51.05 321.83,-50.49 315.23,-46.57 325.6,-50.14"/>
<text xml:space="preserve" text-anchor="middle" x="236.5" y="-69.43" font-family="Helvetica,sans-Serif" font-size="14.00">durationOut→durationIn</text>
</g>
<!-- toastBread.applyHeat -->
<g id="node3" class="node">
<title>toastBread.applyHeat</title>
<polygon fill="white" stroke="black" points="145.75,-36 0,-36 0,0 145.75,0 145.75,-36"/>
<text xml:space="preserve" text-anchor="middle" x="72.88" y="-12.2" font-family="Helvetica,sans-Serif" font-size="14.00">toastBread.applyHeat</text>
</g>
<!-- toastBread.applyHeat&#45;&gt;heating -->
<g id="edge2" class="edge">
<title>toastBread.applyHeat&#45;&gt;heating</title>
<path fill="none" stroke="black" stroke-dasharray="5,2" d="M146.06,-22.65C192.68,-25.87 254.6,-30.54 309.25,-36 311.39,-36.21 313.57,-36.44 315.77,-36.67"/>
<polygon fill="black" stroke="black" points="325.67,-37.77 315.23,-41.14 321.91,-37.35 315.73,-36.67 315.73,-36.67 315.73,-36.67 321.91,-37.35 316.22,-32.19 325.67,-37.77"/>
<text xml:space="preserve" text-anchor="middle" x="236.5" y="-37.7" font-family="Helvetica,sans-Serif" font-size="14.00">allocate</text>
</g>
</g>
</svg>
