<?xml version="1.0" encoding="UTF-8" standalone="no"?>
<!DOCTYPE svg PUBLIC "-//W3C//DTD SVG 1.1//EN"
 "http://www.w3.org/Graphics/SVG/1.1/DTD/svg11.dtd">
<!-- Generated by graphviz version 16.0.0 (20260814.1018)
 -->
<!-- Pages: 1 -->
<svg width="254pt" height="372pt"
 viewBox="0.00 0.00 254.00 372.00" xmlns="http://www.w3.org/2000/svg" xmlns:xlink="http://www.w3.org/1999/xlink">
<g id="graph0" class="graph" transform="scale(1 1) rotate(0) translate(4 368)">
<polygon fill="white" stroke="none" points="-4,4 -4,-368 250,-368 250,4 -4,4"/>
<g id="clust1" class="cluster">
<title>cluster_n0</title>
<polygon fill="none" stroke="black" stroke-width="0.5" points="8,-8 8,-356 238,-356 238,-8 8,-8"/>
<text xml:space="preserve" text-anchor="start" x="105" y="-339.7" font-family="Helvetica,sans-Serif" font-weight="bold" font-size="14.00">Cycle</text>
<text xml:space="preserve" text-anchor="start" x="98.62" y="-329.5" font-family="Helvetica,sans-Serif" font-style="italic" font-size="10.00">«state def»</text>
</g>
<!-- n0 -->
<!-- n5 -->
<g id="node2" class="node">
<title>n5</title>
<ellipse fill="black" stroke="#181818" stroke-width="0.5" cx="143" cy="-298" rx="1.8" ry="1.8"/>
</g>
<!-- n1 -->
<g id="node3" class="node">
<title>n1</title>
<path fill="white" stroke="#181818" stroke-width="0.5" d="M182,-243C182,-243 152,-243 152,-243 146,-243 140,-237 140,-231 140,-231 140,-209 140,-209 140,-203 146,-197 152,-197 152,-197 182,-197 182,-197 188,-197 194,-203 194,-209 194,-209 194,-231 194,-231 194,-237 188,-243 182,-243"/>
<text xml:space="preserve" text-anchor="start" x="155.38" y="-226.7" font-family="Helvetica,sans-Serif" font-weight="bold" font-size="14.00">idle</text>
<text xml:space="preserve" text-anchor="start" x="150.88" y="-216.5" font-family="Helvetica,sans-Serif" font-style="italic" font-size="10.00">«state»</text>
<text xml:space="preserve" text-anchor="start" x="151.62" y="-202.7" font-family="Helvetica,sans-Serif" font-size="14.00">initial</text>
</g>
<!-- n5&#45;&gt;n1 -->
<g id="edge1" class="edge">
<title>n5&#45;&gt;n1</title>
<path fill="none" stroke="#181818" d="M143.27,-296.15C144.63,-291.85 150.86,-272.1 156.6,-253.92"/>
<polygon fill="#181818" stroke="#181818" points="159.94,-254.99 159.61,-244.4 153.26,-252.88 159.94,-254.99"/>
</g>
<!-- n2 -->
<g id="node4" class="node">
<title>n2</title>
<path fill="white" stroke="#181818" stroke-width="0.5" d="M157,-147.5C157,-147.5 117,-147.5 117,-147.5 111,-147.5 105,-141.5 105,-135.5 105,-135.5 105,-113.5 105,-113.5 105,-107.5 111,-101.5 117,-101.5 117,-101.5 157,-101.5 157,-101.5 163,-101.5 169,-107.5 169,-113.5 169,-113.5 169,-135.5 169,-135.5 169,-141.5 163,-147.5 157,-147.5"/>
<text xml:space="preserve" text-anchor="start" x="113" y="-131.2" font-family="Helvetica,sans-Serif" font-weight="bold" font-size="14.00">heating</text>
<text xml:space="preserve" text-anchor="start" x="120.88" y="-121" font-family="Helvetica,sans-Serif" font-style="italic" font-size="10.00">«state»</text>
<text xml:space="preserve" text-anchor="start" x="129.5" y="-107.2" font-family="Helvetica,sans-Serif" font-size="14.00">do</text>
</g>
<!-- n1&#45;&gt;n2 -->
<g id="edge2" class="edge">
<title>n1&#45;&gt;n2</title>
<path fill="none" stroke="#181818" d="M158.41,-197.11C156.22,-191.26 153.94,-184.92 152,-179 149.85,-172.42 147.72,-165.33 145.78,-158.52"/>
<polygon fill="#181818" stroke="#181818" points="149.17,-157.65 143.12,-148.95 142.43,-159.52 149.17,-157.65"/>
<text xml:space="preserve" text-anchor="middle" x="188" y="-166.65" font-family="Helvetica,sans-Serif" font-size="13.00">accept Start</text>
</g>
<!-- n4 -->
<g id="node6" class="node">
<title>n4</title>
<path fill="white" stroke="#181818" stroke-width="0.5" d="M163.75,-52C163.75,-52 110.25,-52 110.25,-52 104.25,-52 98.25,-46 98.25,-40 98.25,-40 98.25,-28 98.25,-28 98.25,-22 104.25,-16 110.25,-16 110.25,-16 163.75,-16 163.75,-16 169.75,-16 175.75,-22 175.75,-28 175.75,-28 175.75,-40 175.75,-40 175.75,-46 169.75,-52 163.75,-52"/>
<text xml:space="preserve" text-anchor="start" x="106.25" y="-33.7" font-family="Helvetica,sans-Serif" font-weight="bold" font-size="14.00">cancelled</text>
<text xml:space="preserve" text-anchor="start" x="120.88" y="-23.5" font-family="Helvetica,sans-Serif" font-style="italic" font-size="10.00">«state»</text>
</g>
<!-- n2&#45;&gt;n4 -->
<g id="edge3" class="edge">
<title>n2&#45;&gt;n4</title>
<path fill="none" stroke="#181818" d="M104.96,-119.01C68.27,-112.46 15.61,-97.9 35.5,-70 47.35,-53.38 67.63,-44.57 86.97,-39.94"/>
<polygon fill="#181818" stroke="#181818" points="87.59,-43.39 96.69,-37.97 86.19,-36.53 87.59,-43.39"/>
<text xml:space="preserve" text-anchor="middle" x="75.25" y="-71.15" font-family="Helvetica,sans-Serif" font-size="13.00">accept Finish</text>
</g>
<!-- n2&#45;&gt;n4 -->
<g id="edge4" class="edge">
<title>n2&#45;&gt;n4</title>
<path fill="none" stroke="#181818" d="M137,-101.62C137,-90.06 137,-75.74 137,-63.34"/>
<polygon fill="#181818" stroke="#181818" points="140.5,-63.71 137,-53.71 133.5,-63.71 140.5,-63.71"/>
<text xml:space="preserve" text-anchor="middle" x="179.75" y="-71.15" font-family="Helvetica,sans-Serif" font-size="13.00">accept Cancel</text>
</g>
<!-- n3 -->
<g id="node5" class="node">
<title>n3</title>
<path fill="white" stroke="#181818" stroke-width="0.5" d="M205,-316C205,-316 175,-316 175,-316 169,-316 163,-310 163,-304 163,-304 163,-292 163,-292 163,-286 169,-280 175,-280 175,-280 205,-280 205,-280 211,-280 217,-286 217,-292 217,-292 217,-304 217,-304 217,-310 211,-316 205,-316"/>
<text xml:space="preserve" text-anchor="start" x="172" y="-297.7" font-family="Helvetica,sans-Serif" font-weight="bold" font-size="14.00">ready</text>
<text xml:space="preserve" text-anchor="start" x="173.88" y="-287.5" font-family="Helvetica,sans-Serif" font-style="italic" font-size="10.00">«state»</text>
</g>
<!-- n3&#45;&gt;n1 -->
<g id="edge5" class="edge">
<title>n3&#45;&gt;n1</title>
<path fill="none" stroke="#181818" d="M184.78,-279.75C182.47,-272.12 179.67,-262.87 176.98,-253.99"/>
<polygon fill="#181818" stroke="#181818" points="180.37,-253.1 174.12,-244.54 173.67,-255.12 180.37,-253.1"/>
</g>
<!-- n4&#45;&gt;n1 -->
<g id="edge6" class="edge">
<title>n4&#45;&gt;n1</title>
<path fill="none" stroke="#181818" d="M175.76,-40.55C193.59,-45.25 213.15,-53.95 224,-70 251.12,-110.14 246.35,-136.02 224,-179 219.39,-187.87 211.82,-195.18 203.67,-201.01"/>
<polygon fill="#181818" stroke="#181818" points="201.81,-198.05 195.27,-206.38 205.58,-203.95 201.81,-198.05"/>
</g>
</g>
</svg>
